<?xml version="1.0" encoding="utf-8"?>
<!-- Generator: Adobe Illustrator 23.1.0, SVG Export Plug-In . SVG Version: 6.00 Build 0)  -->
<svg version="1.1" id="Layer_1" xmlns="http://www.w3.org/2000/svg" xmlns:xlink="http://www.w3.org/1999/xlink" x="0px" y="0px"
	 viewBox="0 0 1592.36 406.61" style="enable-background:new 0 0 1592.36 406.61;" xml:space="preserve">
<path d="M203.31,0C91.02,0,0,91.02,0,203.31s91.02,203.31,203.31,203.31s203.31-91.02,203.31-203.31S315.59,0,203.31,0z
	 M261.43,325.28c-17.84,0-32.6-15.57-35.11-35.76H179.1c-2.5,20.19-17.27,35.76-35.11,35.76c-19.59,0-35.52-18.75-35.52-41.81
	c0-23.05,15.93-41.81,35.52-41.81c17.65,0,32.29,15.24,35.02,35.12h47.39c2.73-19.88,17.37-35.12,35.02-35.12
	c19.59,0,35.52,18.75,35.52,41.81C296.95,306.52,281.02,325.28,261.43,325.28z M94.87,201.33l0.53-29.57
	c17.31,6.75,34.63,13.49,51.95,20.21c17.39,6.74,34.77,13.47,52.17,20.17l104.12-40.39l0.53,29.57
	c-34.85,13-69.71,25.99-104.56,38.99c0,0.02-0.06,0.04-0.08,0.03c-0.03,0.01-0.08-0.01-0.08-0.03
	C164.58,227.32,129.72,214.33,94.87,201.33z M324.12,150.88c-2.32,0.97-4.24,1.64-5.4,2.02c-2.31,12.41-3.51,22.94-4.18,30.71
	c-1.03,11.96-1.87,21.75-0.7,34.55c1.02,11.12,3.16,20.1,4.88,26.1c-2.47,0.04-5.29,0.25-8.37,0.77c-3.45,0.58-6.49,1.42-9.07,2.3
	c3.21-10.67,4.77-19.91,5.58-26.87c1.06-9.14,1.09-16.61,1.1-20.73c0.01-5.69-0.22-10.27-0.4-13.05
	c-0.46-7.08-1.46-16.51-3.77-27.58c-18.39,7.43-34.09,13.65-46.39,18.49c-2.9,1.14-13.38,5.25-27.25,10.62
	c-11.48,4.44-21.6,8.32-29.99,11.52c-22.09-9.12-44.19-18.23-66.28-27.35c-13.61-5.62-27.22-11.23-40.84-16.85
	c-5.52-2.28-11.05-4.56-16.57-6.84c-7.51-3.1-15.02-6.2-22.52-9.29c-6.17-2.55-12.35-5.09-18.52-7.64
	c21.87-7.52,43.59-14.63,65.11-21.92c33.45-11.33,58.04-20.77,63.93-22.96c14.6-5.43,26.99-10.18,36.39-13.82
	c5.21,1.86,10.44,3.7,15.65,5.56c7.09,2.52,14.17,5.04,21.28,7.55c1.01,0.36,2.02,0.71,3.04,1.07c5.99,2.12,11.97,4.22,17.95,6.32
	c6.8,2.39,13.6,4.78,20.39,7.16c7.42,2.6,14.85,5.2,22.26,7.78c22.86,7.96,45.68,15.85,68.45,23.66l0,0l0,0l0,0
	C354.82,138.35,326.77,149.77,324.12,150.88z"/>
<g>
	<path d="M465.45,143.82v6.24h36.17v16.58h-36.17v6.24h43.68v16.69h-50.36c-2.81,0-5.19-1.21-7.14-3.63
		c-1.95-2.42-2.93-5.37-2.93-8.86v-37.47c0-3.48,0.98-6.43,2.93-8.86c1.95-2.42,4.33-3.63,7.14-3.63h50.36v16.69H465.45z"/>
	<path d="M583.3,172.89v16.69h-50.36c-2.81,0-5.19-1.21-7.14-3.63c-1.95-2.42-2.93-5.37-2.93-8.86v-49.96h16.76v45.76H583.3z"/>
	<path d="M683.38,139.62v49.96h-16.85v-32.7l-16.76,32.7l-16.76-32.7v32.7h-16.85v-49.96c0-3.48,0.99-6.43,2.98-8.86
		c1.98-2.42,4.35-3.63,7.1-3.63h7.42l16.12,31.45l16.12-31.45h7.42c2.75,0,5.11,1.21,7.1,3.63
		C682.39,133.18,683.38,136.14,683.38,139.62z"/>
	<path d="M746.93,127.13c2.75,0,5.11,1.21,7.1,3.63c1.98,2.42,2.98,5.38,2.98,8.86v49.96h-16.85V168.8h-26.83v20.78h-16.76v-49.96
		c0-3.48,0.98-6.43,2.93-8.86c1.95-2.42,4.33-3.63,7.14-3.63H746.93z M740.15,152.11v-8.29h-26.83v8.29H740.15z"/>
	<path d="M831.44,127.13v49.96c0,3.48-0.98,6.43-2.93,8.86c-1.95,2.42-4.34,3.63-7.14,3.63h-8.61l-25-38.72v38.72h-16.76v-49.96
		c0-3.48,0.98-6.43,2.93-8.86c1.95-2.42,4.33-3.63,7.14-3.63h8.61l25,38.72v-38.72H831.44z"/>
	<path d="M895.27,127.13c2.75,0,5.11,1.21,7.1,3.63c1.98,2.42,2.98,5.38,2.98,8.86v49.96h-16.85V168.8h-26.83v20.78H844.9v-49.96
		c0-3.48,0.98-6.43,2.93-8.86c1.95-2.42,4.33-3.63,7.14-3.63H895.27z M888.49,152.11v-8.29h-26.83v8.29H888.49z"/>
	<path d="M979.78,127.13v62.45h-16.76v-22.94H936.1v22.94h-16.76v-62.45h16.76v22.94h26.92v-22.94H979.78z"/>
	<path d="M1010.27,143.82v6.24h36.17v16.58h-36.17v6.24h43.68v16.69h-50.36c-2.81,0-5.19-1.21-7.14-3.63
		c-1.95-2.42-2.93-5.37-2.93-8.86v-37.47c0-3.48,0.98-6.43,2.93-8.86c1.95-2.42,4.33-3.63,7.14-3.63h50.36v16.69H1010.27z"/>
	<path d="M1128.12,172.89v16.69h-50.36c-2.81,0-5.19-1.21-7.14-3.63c-1.95-2.42-2.93-5.37-2.93-8.86v-49.96h16.76v45.76H1128.12z"/>
	<path d="M1177.84,143.82v6.24h43.68v27.02c0,0.3,0,0.49,0,0.57c-0.12,3.26-1.16,6.06-3.11,8.4c-1.95,2.35-4.27,3.52-6.96,3.52
		h-50.36v-16.69h43.68v-6.24h-43.68v-27.02c0-0.23,0-0.42,0-0.57c0.12-3.33,1.17-6.15,3.16-8.46c1.98-2.31,4.29-3.46,6.91-3.46
		h50.36v16.69H1177.84z"/>
	<path d="M1252,143.82v29.07h43.68v16.69h-50.36c-2.81,0-5.19-1.21-7.14-3.63c-1.95-2.42-2.93-5.37-2.93-8.86v-37.47
		c0-3.48,0.98-6.43,2.93-8.86c1.95-2.42,4.33-3.63,7.14-3.63h50.36v16.69H1252z"/>
	<path d="M1369.85,127.13v62.45h-16.76v-22.94h-26.92v22.94h-16.76v-62.45h16.76v22.94h26.92v-22.94H1369.85z"/>
	<path d="M1433.95,127.13c2.81,0,5.19,1.21,7.14,3.63c1.95,2.42,2.93,5.38,2.93,8.86v37.47c0,3.48-0.98,6.43-2.93,8.86
		c-1.95,2.42-4.33,3.63-7.14,3.63h-40.29c-2.81,0-5.19-1.21-7.14-3.63c-1.95-2.42-2.93-5.37-2.93-8.86v-37.47
		c0-3.48,0.98-6.43,2.93-8.86c1.95-2.42,4.33-3.63,7.14-3.63H1433.95z M1427.26,172.89v-29.07h-26.92v29.07H1427.26z"/>
	<path d="M1508.11,127.13c2.81,0,5.19,1.21,7.14,3.63c1.95,2.42,2.93,5.38,2.93,8.86v37.47c0,3.48-0.98,6.43-2.93,8.86
		c-1.95,2.42-4.33,3.63-7.14,3.63h-40.29c-2.81,0-5.19-1.21-7.14-3.63c-1.95-2.42-2.93-5.37-2.93-8.86v-37.47
		c0-3.48,0.98-6.43,2.93-8.86c1.95-2.42,4.33-3.63,7.14-3.63H1508.11z M1501.43,172.89v-29.07h-26.92v29.07H1501.43z"/>
	<path d="M1592.36,172.89v16.69h-50.36c-2.81,0-5.19-1.21-7.14-3.63c-1.95-2.42-2.93-5.37-2.93-8.86v-49.96h16.76v45.76H1592.36z"/>
</g>
<g>
	<path d="M460.68,231.74v3.6h19.92v7.25h-19.92v9.02h-9.02v-21.69c0-1.51,0.53-2.79,1.58-3.85c1.05-1.05,2.33-1.58,3.85-1.58h27.12
		v7.25H460.68z"/>
	<path d="M534.34,224.49c1.51,0,2.79,0.53,3.85,1.58c1.05,1.05,1.58,2.33,1.58,3.85v16.27c0,1.51-0.53,2.79-1.58,3.85
		c-1.05,1.05-2.33,1.58-3.85,1.58h-21.69c-1.51,0-2.79-0.53-3.85-1.58c-1.05-1.05-1.58-2.33-1.58-3.85v-16.27
		c0-1.51,0.53-2.79,1.58-3.85c1.05-1.05,2.33-1.58,3.85-1.58H534.34z M530.74,244.36v-12.62h-14.5v12.62H530.74z"/>
	<path d="M589.9,224.49c1.51,0,2.79,0.53,3.85,1.58c1.05,1.05,1.58,2.33,1.58,3.85v7.25c0,1.48-0.53,2.75-1.58,3.82
		c-1.05,1.07-2.33,1.6-3.85,1.6h-2.12l7.54,9.02h-9.42l-7.59-9.02h-6.51v9.02h-9.02v-27.12H589.9z M586.31,235.34v-3.6h-14.5v3.6
		H586.31z"/>
	<path d="M671.45,224.49c1.51,0,2.79,0.53,3.85,1.58c1.05,1.05,1.58,2.33,1.58,3.85v16.27c0,1.51-0.53,2.79-1.58,3.85
		c-1.05,1.05-2.33,1.58-3.85,1.58h-21.69c-1.51,0-2.79-0.53-3.85-1.58c-1.05-1.05-1.58-2.33-1.58-3.85v-16.27
		c0-1.51,0.53-2.79,1.58-3.85c1.05-1.05,2.33-1.58,3.85-1.58H671.45z M667.86,244.36v-12.62h-14.5v12.62H667.86z"/>
	<path d="M732.25,224.49v21.69c0,1.51-0.53,2.79-1.58,3.85c-1.05,1.05-2.33,1.58-3.85,1.58h-21.69c-1.51,0-2.79-0.53-3.85-1.58
		c-1.05-1.05-1.58-2.33-1.58-3.85v-21.69h9.02v19.87h14.5v-19.87H732.25z"/>
	<path d="M782.59,224.49c1.51,0,2.79,0.53,3.85,1.58c1.05,1.05,1.58,2.33,1.58,3.85v7.25c0,1.48-0.53,2.75-1.58,3.82
		c-1.05,1.07-2.33,1.6-3.85,1.6h-2.12l7.54,9.02h-9.42l-7.59-9.02h-6.51v9.02h-9.02v-27.12H782.59z M778.99,235.34v-3.6h-14.5v3.6
		H778.99z"/>
	<path d="M846.04,231.74v12.62h23.52v7.25h-27.12c-1.51,0-2.79-0.53-3.85-1.58c-1.05-1.05-1.58-2.33-1.58-3.85v-16.27
		c0-1.51,0.53-2.79,1.58-3.85c1.05-1.05,2.33-1.58,3.85-1.58h27.12v7.25H846.04z"/>
	<path d="M925.13,224.49v27.12h-9.02v-9.96h-14.5v9.96h-9.02v-27.12h9.02v9.96h14.5v-9.96H925.13z"/>
	<path d="M947.07,251.61v-27.12h9.07v27.12H947.07z"/>
	<path d="M1010.62,244.36v7.25h-27.12c-1.51,0-2.79-0.53-3.85-1.58c-1.05-1.05-1.58-2.33-1.58-3.85v-21.69h9.02v19.87H1010.62z"/>
	<path d="M1060.77,224.49c1.51,0,2.79,0.53,3.85,1.58c1.05,1.05,1.58,2.33,1.58,3.85v16.27c0,1.51-0.53,2.79-1.58,3.85
		c-1.05,1.05-2.33,1.58-3.85,1.58h-27.12v-27.12H1060.77z M1057.17,244.36v-12.62h-14.5v12.62H1057.17z"/>
	<path d="M1116.33,224.49c1.51,0,2.79,0.53,3.85,1.58c1.05,1.05,1.58,2.33,1.58,3.85v7.25c0,1.48-0.53,2.75-1.58,3.82
		c-1.05,1.07-2.33,1.6-3.85,1.6h-2.12l7.54,9.02h-9.42l-7.59-9.02h-6.51v9.02h-9.02v-27.12H1116.33z M1112.73,235.34v-3.6h-14.5v3.6
		H1112.73z"/>
	<path d="M1153.81,231.74v2.71h19.48v7.2h-19.48v2.71h23.52v7.25h-27.12c-1.51,0-2.79-0.53-3.85-1.58
		c-1.05-1.05-1.58-2.33-1.58-3.85v-16.27c0-1.51,0.53-2.79,1.58-3.85c1.05-1.05,2.33-1.58,3.85-1.58h27.12v7.25H1153.81z"/>
	<path d="M1232.89,224.49v21.69c0,1.51-0.53,2.79-1.58,3.85c-1.05,1.05-2.33,1.58-3.85,1.58h-4.63l-13.46-16.81v16.81h-9.02v-21.69
		c0-1.51,0.53-2.79,1.58-3.85c1.05-1.05,2.33-1.58,3.85-1.58h4.63l13.46,16.81v-16.81H1232.89z"/>
	<path d="M1290.92,231.74v3.6h19.92v7.25h-19.92v9.02h-9.02v-21.69c0-1.51,0.53-2.79,1.58-3.85c1.05-1.05,2.33-1.58,3.85-1.58h27.12
		v7.25H1290.92z"/>
	<path d="M1369.81,224.49v21.69c0,1.51-0.53,2.79-1.58,3.85c-1.05,1.05-2.33,1.58-3.85,1.58h-21.69c-1.51,0-2.79-0.53-3.85-1.58
		c-1.05-1.05-1.58-2.33-1.58-3.85v-21.69h9.02v19.87h14.5v-19.87H1369.81z"/>
	<path d="M1425.92,224.49v7.25h-11.78v19.87h-9.02v-19.87h-11.73v-7.25H1425.92z"/>
	<path d="M1480.94,224.49v21.69c0,1.51-0.53,2.79-1.58,3.85c-1.05,1.05-2.33,1.58-3.85,1.58h-21.69c-1.51,0-2.79-0.53-3.85-1.58
		c-1.05-1.05-1.58-2.33-1.58-3.85v-21.69h9.02v19.87h14.5v-19.87H1480.94z"/>
	<path d="M1531.28,224.49c1.51,0,2.79,0.53,3.85,1.58c1.05,1.05,1.58,2.33,1.58,3.85v7.25c0,1.48-0.53,2.75-1.58,3.82
		c-1.05,1.07-2.33,1.6-3.85,1.6h-2.12l7.54,9.02h-9.42l-7.59-9.02h-6.51v9.02h-9.02v-27.12H1531.28z M1527.68,235.34v-3.6h-14.5v3.6
		H1527.68z"/>
	<path d="M1568.75,231.74v2.71h19.48v7.2h-19.48v2.71h23.52v7.25h-27.12c-1.51,0-2.79-0.53-3.85-1.58
		c-1.05-1.05-1.58-2.33-1.58-3.85v-16.27c0-1.51,0.53-2.79,1.58-3.85c1.05-1.05,2.33-1.58,3.85-1.58h27.12v7.25H1568.75z"/>
</g>
</svg>
